<svg id="Capa_1" enable-background="new 0 0 512 512" height="512" viewBox="0 0 512 512" width="512" xmlns="http://www.w3.org/2000/svg"><g><g fill="#548eb5"><path d="m505 398.222h-49.889v-56.889h49.889c3.866 0 7 3.134 7 7v42.889c0 3.866-3.134 7-7 7z"/><path d="m455.111 455.111h-56.889v-49.889c0-3.866 3.134-7 7-7h49.889z"/><path d="m277.444 284.444h-42.889c-3.866 0-7-3.134-7-7v-42.889c0-3.866 3.134-7 7-7h49.889v49.889c0 3.866-3.134 7-7 7z"/><path d="m277.444 56.889h-42.889c-3.866 0-7-3.134-7-7v-42.889c0-3.866 3.134-7 7-7h42.889c3.866 0 7 3.134 7 7v42.889c0 3.866-3.134 7-7 7z"/><path d="m391.222 512h-42.889c-3.866 0-7-3.134-7-7v-42.889c0-3.866 3.134-7 7-7h49.889v49.889c0 3.866-3.134 7-7 7z"/><path d="m277.444 398.222h-49.889v-49.889c0-3.866 3.134-7 7-7h42.889c3.866 0 7 3.134 7 7v42.889c0 3.866-3.134 7-7 7z"/><path d="m277.444 512h-42.889c-3.866 0-7-3.134-7-7v-49.889h49.889c3.866 0 7 3.134 7 7v42.889c0 3.866-3.134 7-7 7z"/><path d="m405.222 227.556c-3.866 0-7 3.134-7 7v49.889h-49.889c-3.866 0-7 3.134-7 7v42.889c0 3.866 3.134 7 7 7h106.778v-56.889h49.889c3.866 0 7-3.134 7-7v-42.889c0-3.866-3.134-7-7-7z"/><path d="m56.889 234.556v42.889c0 3.866 3.134 7 7 7h99.778c3.866 0 7-3.134 7-7v-42.889c0-3.866-3.134-7-7-7h-99.778c-3.866 0-7 3.134-7 7z"/><path d="m505 512h-42.889c-3.866 0-7-3.134-7-7v-49.889h49.889c3.866 0 7 3.134 7 7v42.889c0 3.866-3.134 7-7 7z"/><path d="m0 7v156.667c0 3.866 3.134 7 7 7h156.667c3.866 0 7-3.134 7-7v-156.667c0-3.866-3.134-7-7-7h-156.667c-3.866 0-7 3.134-7 7zm129.46 122.46h-88.253v-88.253h88.253z"/><path d="m227.556 398.222h-56.889v-49.889c0-3.866-3.134-7-7-7h-156.667c-3.866 0-7 3.134-7 7v156.667c0 3.866 3.134 7 7 7h156.667c3.866 0 7-3.134 7-7v-49.889h56.889zm-98.096 72.571h-88.253v-88.253h88.252v88.253z"/><path d="m341.333 7v106.778h-106.777c-3.866 0-7 3.134-7 7v42.889c0 3.866 3.134 7 7 7h42.889c3.866 0 7 3.134 7 7v49.889h49.889c3.866 0 7-3.134 7-7v-49.889h163.666c3.866 0 7-3.134 7-7v-156.667c0-3.866-3.134-7-7-7h-156.667c-3.866 0-7 3.134-7 7zm129.46 122.46h-88.253v-88.253h88.252v88.253z"/></g></g></svg>